<mxfile host="app.diagrams.net" agent="Mozilla/5.0 (Windows NT 10.0; Win64; x64; rv:139.0) Gecko/20100101 Firefox/139.0" version="27.1.6">
  <diagram name="Page-1" id="IkYNe_tvrp3e6642Grr8">
    <mxGraphModel dx="1181" dy="651" grid="1" gridSize="10" guides="1" tooltips="1" connect="1" arrows="1" fold="1" page="1" pageScale="1" pageWidth="850" pageHeight="1100" math="0" shadow="0">
      <root>
        <mxCell id="0" />
        <mxCell id="1" parent="0" />
        <mxCell id="NzKdBhivD-xaXoP95iIL-1" value="Add / Edit Tour Log" style="strokeWidth=1;shadow=0;dashed=0;align=center;html=1;shape=mxgraph.mockup.containers.window;align=left;verticalAlign=top;spacingLeft=8;strokeColor2=#008cff;strokeColor3=#c4c4c4;fontColor=#666666;mainText=;fontSize=17;labelBackgroundColor=none;whiteSpace=wrap;" vertex="1" parent="1">
          <mxGeometry x="120" y="150" width="520" height="440" as="geometry" />
        </mxCell>
        <mxCell id="NzKdBhivD-xaXoP95iIL-2" value="" style="html=1;shadow=0;dashed=0;shape=mxgraph.bootstrap.rrect;rSize=5;strokeColor=#CED4DA;html=1;whiteSpace=wrap;fillColor=#FFFFFF;fontColor=#7D868C;align=left;spacing=15;spacingLeft=40;fontSize=14;" vertex="1" parent="1">
          <mxGeometry x="130" y="210" width="500" height="30" as="geometry" />
        </mxCell>
        <mxCell id="NzKdBhivD-xaXoP95iIL-11" value="" style="html=1;shadow=0;dashed=0;shape=mxgraph.bootstrap.rrect;rSize=5;strokeColor=#CED4DA;html=1;whiteSpace=wrap;fillColor=#FFFFFF;fontColor=#7D868C;align=left;spacing=15;fontSize=14;" vertex="1" parent="1">
          <mxGeometry x="130" y="387" width="500" height="30" as="geometry" />
        </mxCell>
        <mxCell id="NzKdBhivD-xaXoP95iIL-29" value="&lt;font style=&quot;font-size: 18px;&quot;&gt;Cancel&lt;/font&gt;" style="rounded=1;fillColor=#F1F2F4;strokeColor=none;html=1;whiteSpace=wrap;fontColor=#596780;align=center;verticalAlign=middle;fontStyle=0;fontSize=12;sketch=0;" vertex="1" parent="1">
          <mxGeometry x="532" y="546" width="90" height="33" as="geometry" />
        </mxCell>
        <mxCell id="NzKdBhivD-xaXoP95iIL-31" value="&lt;font style=&quot;font-size: 18px;&quot;&gt;Save&lt;/font&gt;" style="rounded=1;fillColor=#F1F2F4;strokeColor=none;html=1;whiteSpace=wrap;fontColor=#596780;align=center;verticalAlign=middle;fontStyle=0;fontSize=12;sketch=0;" vertex="1" parent="1">
          <mxGeometry x="450" y="546" width="70" height="33" as="geometry" />
        </mxCell>
        <mxCell id="NzKdBhivD-xaXoP95iIL-35" value="Distance Traveled:" style="text;html=1;align=left;verticalAlign=middle;whiteSpace=wrap;rounded=0;" vertex="1" parent="1">
          <mxGeometry x="130" y="357" width="120" height="30" as="geometry" />
        </mxCell>
        <mxCell id="NzKdBhivD-xaXoP95iIL-41" value="Timestamp:" style="text;html=1;align=left;verticalAlign=middle;whiteSpace=wrap;rounded=0;" vertex="1" parent="1">
          <mxGeometry x="130" y="181" width="99" height="30" as="geometry" />
        </mxCell>
        <mxCell id="NzKdBhivD-xaXoP95iIL-45" value="" style="html=1;shadow=0;dashed=0;shape=mxgraph.bootstrap.rrect;rSize=5;strokeColor=#CED4DA;html=1;whiteSpace=wrap;fillColor=#FFFFFF;fontColor=#7D868C;align=left;spacing=15;spacingLeft=40;fontSize=14;" vertex="1" parent="1">
          <mxGeometry x="131" y="269" width="500" height="30" as="geometry" />
        </mxCell>
        <mxCell id="NzKdBhivD-xaXoP95iIL-46" value="Comment:" style="text;html=1;align=left;verticalAlign=middle;whiteSpace=wrap;rounded=0;" vertex="1" parent="1">
          <mxGeometry x="131" y="240" width="99" height="30" as="geometry" />
        </mxCell>
        <mxCell id="NzKdBhivD-xaXoP95iIL-47" value="00.00:00:00" style="html=1;shadow=0;dashed=0;shape=mxgraph.bootstrap.rrect;rSize=5;strokeColor=#CED4DA;html=1;whiteSpace=wrap;fillColor=#FFFFFF;fontColor=#7D868C;align=left;spacing=15;fontSize=14;" vertex="1" parent="1">
          <mxGeometry x="130" y="446" width="500" height="30" as="geometry" />
        </mxCell>
        <mxCell id="NzKdBhivD-xaXoP95iIL-48" value="" style="shape=triangle;direction=south;fillColor=#343A40;strokeColor=none;perimeter=none;" vertex="1" parent="NzKdBhivD-xaXoP95iIL-47">
          <mxGeometry x="1" y="0.5" width="7" height="3" relative="1" as="geometry">
            <mxPoint x="-15" y="1" as="offset" />
          </mxGeometry>
        </mxCell>
        <mxCell id="NzKdBhivD-xaXoP95iIL-49" value="" style="shape=triangle;direction=north;fillColor=#343A40;strokeColor=none;perimeter=none;" vertex="1" parent="NzKdBhivD-xaXoP95iIL-47">
          <mxGeometry x="1" y="0.5" width="7" height="3" relative="1" as="geometry">
            <mxPoint x="-15" y="-4" as="offset" />
          </mxGeometry>
        </mxCell>
        <mxCell id="NzKdBhivD-xaXoP95iIL-50" value="Time Taken:" style="text;html=1;align=left;verticalAlign=middle;whiteSpace=wrap;rounded=0;" vertex="1" parent="1">
          <mxGeometry x="130" y="417" width="80" height="30" as="geometry" />
        </mxCell>
        <mxCell id="NzKdBhivD-xaXoP95iIL-53" value="Rating:" style="text;html=1;align=left;verticalAlign=middle;whiteSpace=wrap;rounded=0;" vertex="1" parent="1">
          <mxGeometry x="130" y="480" width="80" height="30" as="geometry" />
        </mxCell>
        <mxCell id="NzKdBhivD-xaXoP95iIL-54" value="" style="html=1;verticalLabelPosition=bottom;align=center;labelBackgroundColor=#ffffff;verticalAlign=top;strokeWidth=2;strokeColor=#0080F0;shadow=0;dashed=0;shape=mxgraph.ios7.icons.star;" vertex="1" parent="1">
          <mxGeometry x="131" y="510" width="19" height="17.1" as="geometry" />
        </mxCell>
        <mxCell id="NzKdBhivD-xaXoP95iIL-55" value="" style="html=1;verticalLabelPosition=bottom;align=center;labelBackgroundColor=#ffffff;verticalAlign=top;strokeWidth=2;strokeColor=#0080F0;shadow=0;dashed=0;shape=mxgraph.ios7.icons.star;" vertex="1" parent="1">
          <mxGeometry x="160.5" y="510" width="19" height="17.1" as="geometry" />
        </mxCell>
        <mxCell id="NzKdBhivD-xaXoP95iIL-56" value="" style="html=1;verticalLabelPosition=bottom;align=center;labelBackgroundColor=#ffffff;verticalAlign=top;strokeWidth=2;strokeColor=#0080F0;shadow=0;dashed=0;shape=mxgraph.ios7.icons.star;" vertex="1" parent="1">
          <mxGeometry x="191" y="510" width="19" height="17.1" as="geometry" />
        </mxCell>
        <mxCell id="NzKdBhivD-xaXoP95iIL-57" value="" style="html=1;verticalLabelPosition=bottom;align=center;labelBackgroundColor=#ffffff;verticalAlign=top;strokeWidth=2;strokeColor=#0080F0;shadow=0;dashed=0;shape=mxgraph.ios7.icons.star;" vertex="1" parent="1">
          <mxGeometry x="220" y="510" width="19" height="17.1" as="geometry" />
        </mxCell>
        <mxCell id="NzKdBhivD-xaXoP95iIL-58" value="" style="html=1;verticalLabelPosition=bottom;align=center;labelBackgroundColor=#ffffff;verticalAlign=top;strokeWidth=2;strokeColor=#0080F0;shadow=0;dashed=0;shape=mxgraph.ios7.icons.star;" vertex="1" parent="1">
          <mxGeometry x="250" y="510" width="19" height="17.1" as="geometry" />
        </mxCell>
        <mxCell id="NzKdBhivD-xaXoP95iIL-59" value="km" style="text;html=1;align=left;verticalAlign=middle;whiteSpace=wrap;rounded=0;" vertex="1" parent="1">
          <mxGeometry x="602" y="386" width="29" height="30" as="geometry" />
        </mxCell>
        <mxCell id="NzKdBhivD-xaXoP95iIL-60" value="" style="html=1;verticalLabelPosition=bottom;labelBackgroundColor=#ffffff;verticalAlign=top;shadow=0;dashed=0;strokeWidth=1;shape=mxgraph.ios7ui.slider;barPos=20;strokeColor=#0080f0;strokeColor2=#a0a0a0;" vertex="1" parent="1">
          <mxGeometry x="137" y="326" width="485" height="40" as="geometry" />
        </mxCell>
        <mxCell id="NzKdBhivD-xaXoP95iIL-61" value="Difficulty:" style="text;html=1;align=left;verticalAlign=middle;whiteSpace=wrap;rounded=0;" vertex="1" parent="1">
          <mxGeometry x="131" y="310" width="120" height="30" as="geometry" />
        </mxCell>
        <mxCell id="NzKdBhivD-xaXoP95iIL-62" value="" style="html=1;dashed=0;aspect=fixed;verticalLabelPosition=bottom;verticalAlign=top;align=center;shape=mxgraph.gmdl.calendar;strokeColor=none;fillColor=#737373;shadow=0;sketch=0;" vertex="1" parent="1">
          <mxGeometry x="600" y="214" width="20" height="20" as="geometry" />
        </mxCell>
      </root>
    </mxGraphModel>
  </diagram>
</mxfile>
